HIERARCHY
ROOT Hips
{
	OFFSET 0.000000 0.000000 0.000000
	CHANNELS 6 Xposition Yposition Zposition Zrotation Yrotation Xrotation 
	JOINT LHipJoint
	{
		OFFSET 0.000000 0.000000 0.000000
		CHANNELS 3 Zrotation Yrotation Xrotation
		JOINT LeftUpLeg
		{
			OFFSET 1.363060 -1.794630 0.839290
			CHANNELS 3 Zrotation Yrotation Xrotation
			JOINT LeftLeg
			{
				OFFSET 2.448110 -6.726130 0.000000
				CHANNELS 3 Zrotation Yrotation Xrotation
				JOINT LeftFoot
				{
					OFFSET 2.562200 -7.039590 0.000000
					CHANNELS 3 Zrotation Yrotation Xrotation
					JOINT LeftToeBase
					{
						OFFSET 0.157640 -0.433110 2.322550
						CHANNELS 3 Zrotation Yrotation Xrotation
						End Site
						{
							OFFSET 0.000000 0.000000 0.000000
						}
					}
				}
			}
		}
	}
	JOINT RHipJoint
	{
		OFFSET 0.000000 0.000000 0.000000
		CHANNELS 3 Zrotation Yrotation Xrotation
		JOINT RightUpLeg
		{
			OFFSET -1.305520 -1.794630 0.839290
			CHANNELS 3 Zrotation Yrotation Xrotation
			JOINT RightLeg
			{
				OFFSET -2.542530 -6.985550 0.000000
				CHANNELS 3 Zrotation Yrotation Xrotation
				JOINT RightFoot
				{
					OFFSET -2.568260 -7.056230 0.000000
					CHANNELS 3 Zrotation Yrotation Xrotation
					JOINT RightToeBase
					{
						OFFSET -0.164730 -0.452590 2.363150
						CHANNELS 3 Zrotation Yrotation Xrotation
						End Site
						{
							OFFSET 0.000000 0.000000 0.000000
						}
					}
				}
			}
		}
	}
	JOINT LowerBack
	{
		OFFSET 0.000000 0.000000 0.000000
		CHANNELS 3 Zrotation Yrotation Xrotation
		JOINT Spine
		{
			OFFSET 0.028270 2.035590 -0.193380
			CHANNELS 3 Zrotation Yrotation Xrotation
			JOINT Spine1
			{
				OFFSET 0.056720 2.048850 -0.042750
				CHANNELS 3 Zrotation Yrotation Xrotation
				JOINT Neck
				{
					OFFSET 0.000000 0.000000 0.000000
					CHANNELS 3 Zrotation Yrotation Xrotation
					JOINT Neck1
					{
						OFFSET -0.054170 1.746240 0.172020
						CHANNELS 3 Zrotation Yrotation Xrotation
						JOINT Head
						{
							OFFSET 0.104070 1.761360 -0.123970
							CHANNELS 3 Zrotation Yrotation Xrotation
							End Site
							{
								OFFSET 0.000000 0.000000 0.000000
							}
						}
					}
				}
				JOINT LeftShoulder
				{
					OFFSET 0.000000 0.000000 0.000000
					CHANNELS 3 Zrotation Yrotation Xrotation
					JOINT LeftArm
					{
						OFFSET 3.362410 1.200890 -0.311210
						CHANNELS 3 Zrotation Yrotation Xrotation
						JOINT LeftForeArm
						{
							OFFSET 4.983000 -0.000000 -0.000000
							CHANNELS 3 Zrotation Yrotation Xrotation
							JOINT LeftHand
							{
								OFFSET 3.483560 -0.000000 -0.000000
								CHANNELS 3 Zrotation Yrotation Xrotation
								JOINT LeftFingerBase
								{
									OFFSET 0.000000 0.000000 0.000000
									CHANNELS 3 Zrotation Yrotation Xrotation
									JOINT LeftHandIndex1
									{
										OFFSET 0.715260 -0.000000 -0.000000
										CHANNELS 3 Zrotation Yrotation Xrotation
										End Site
										{
											OFFSET 0.000000 0.000000 0.000000
										}
									}
								}
								JOINT LThumb
								{
									OFFSET 0.000000 0.000000 0.000000
									CHANNELS 3 Zrotation Yrotation Xrotation
									End Site
									{
										OFFSET 0.000000 0.000000 0.000000
									}
								}
							}
						}
					}
				}
				JOINT RightShoulder
				{
					OFFSET 0.000000 0.000000 0.000000
					CHANNELS 3 Zrotation Yrotation Xrotation
					JOINT RightArm
					{
						OFFSET -3.136600 1.374050 -0.404650
						CHANNELS 3 Zrotation Yrotation Xrotation
						JOINT RightForeArm
						{
							OFFSET -5.241900 -0.000000 -0.000000
							CHANNELS 3 Zrotation Yrotation Xrotation
							JOINT RightHand
							{
								OFFSET -3.444170 -0.000000 -0.000000
								CHANNELS 3 Zrotation Yrotation Xrotation
								JOINT RightFingerBase
								{
									OFFSET 0.000000 0.000000 0.000000
									CHANNELS 3 Zrotation Yrotation Xrotation
									JOINT RightHandIndex1
									{
										OFFSET -0.622530 -0.000000 -0.000000
										CHANNELS 3 Zrotation Yrotation Xrotation
										End Site
										{
											OFFSET 0.000000 0.000000 0.000000
										}
									}
								}
								JOINT RThumb
								{
									OFFSET 0.000000 0.000000 0.000000
									CHANNELS 3 Zrotation Yrotation Xrotation
									End Site
									{
										OFFSET 0.000000 0.000000 0.000000
									}
								}
							}
						}
					}
				}
			}
		}
	}
}
MOTION
Frames: 6
Frame Time: 0.008333
-1.363920 17.121683 1.357714 -26.586880 -72.762425 27.770342 -11.721456 -2.557930 -3.875985 -5.868058 -13.823498 -1.720803 -1.126367 1.640455 21.263249 1.795210 9.508743 -11.783494 -0.738600 0.000000 -29.346900 5.555631 7.314418 2.297676 -7.070127 -15.016350 -90.639349 2.463752 0.580423 2.879779 0.367942 -2.274381 3.431461 -2.033000 0.000001 -73.191900 9.232403 -4.646270 6.114251 0.812425 -4.817514 -2.222147 -7.664964 -4.809536 -1.267146 10.802651 -7.424931 -5.050943 -4.403841 -0.349539 0.576172 0.000000 0.000000 0.000000 -3.965615 -5.158243 2.163160 -70.579372 -6.182322 16.057443 -2.641692 -28.095153 -0.002908 5.389657 -4.896299 -0.237543 -0.063233 0.100565 0.000000 0.000000 0.000000 0.000000 0.000000 0.000000 0.000000 19.112843 -7.913420 1.580124 74.023652 -8.315288 -7.729521 3.952469 13.696388 0.013259 1.455793 9.721936 0.118645 0.070329 -0.035819 0.000000 0.000000 0.000000 0.000000 0.000000 0.000000 0.000000 
-1.364398 17.112471 1.353431 -25.619414 -72.595622 26.897482 -11.662124 -2.494684 -3.716424 -6.061543 -13.855303 -2.242738 -1.149634 1.618812 21.681863 1.755434 9.250720 -11.915076 -0.754800 -0.000000 -29.341300 5.748391 7.287185 2.350049 -8.081241 -14.984361 -87.900666 2.086211 0.712844 1.470086 0.267734 -5.014841 4.333110 -3.216800 0.000001 -74.949200 8.854192 -4.652434 5.821294 0.748446 -4.832094 -2.252466 -7.680769 -4.822844 -1.211555 10.948357 -7.686310 -5.047451 -4.401491 -0.350378 0.584868 0.000000 0.000000 0.000000 -3.786450 -5.262252 2.107142 -70.697135 -5.879934 16.598740 -2.666349 -27.906897 -0.002066 4.954645 -4.682130 -0.208938 -0.062985 0.096702 0.000000 0.000000 0.000000 0.000000 0.000000 0.000000 0.000000 19.297434 -8.193840 1.516994 73.913820 -8.082555 -8.021779 3.911620 14.097588 0.013403 1.318304 9.878002 0.108656 0.070172 -0.038066 0.000000 0.000000 0.000000 0.000000 0.000000 0.000000 0.000000 
-1.364069 17.103602 1.352928 -25.005348 -72.529934 26.388665 -11.621375 -2.411589 -3.498990 -6.164330 -13.808920 -2.938443 -1.161712 1.597615 22.218715 1.720835 9.022183 -12.086981 -0.778700 0.000000 -29.353600 5.935051 7.234012 2.290117 -8.659894 -14.730053 -84.234189 1.730525 0.937767 -1.440171 -0.150194 -7.810548 7.360788 -4.388500 0.000000 -77.512200 8.573731 -4.617384 5.527320 0.701419 -4.810875 -2.280004 -7.692310 -4.801666 -1.153529 11.046939 -7.903824 -5.063535 -4.395224 -0.350754 0.588257 0.000000 0.000000 0.000000 -3.736123 -5.258775 2.059220 -70.757811 -5.654655 17.192408 -2.689963 -27.736070 -0.001253 4.478052 -4.453620 -0.179732 -0.062514 0.092978 0.000000 0.000000 0.000000 0.000000 0.000000 0.000000 0.000000 19.411288 -8.390366 1.462609 73.795779 -7.836455 -8.376737 3.878751 14.457402 0.013651 1.157081 10.049279 0.096266 0.070592 -0.040704 0.000000 0.000000 0.000000 0.000000 0.000000 0.000000 0.000000 
-1.362812 17.095088 1.356244 -24.766388 -72.546900 26.144472 -11.595019 -2.302673 -3.224669 -6.203527 -13.699111 -3.607561 -1.164699 1.578002 22.777976 1.695458 8.849191 -12.273506 -0.806800 0.000000 -29.360600 6.075519 7.159387 2.006062 -8.202464 -14.436007 -79.807495 1.533375 1.229112 -5.864772 -0.972951 -9.772933 12.693099 -5.183800 -0.000000 -80.110800 8.402461 -4.557159 5.340020 0.672223 -4.763195 -2.287386 -7.697770 -4.755050 -1.105092 11.094337 -8.069207 -5.089878 -4.384906 -0.350571 0.587838 0.000000 0.000000 0.000000 -3.806717 -5.182155 2.024777 -70.772540 -5.473408 17.769525 -2.709994 -27.595905 -0.000523 3.984752 -4.224938 -0.151927 -0.061643 0.089527 0.000000 0.000000 0.000000 0.000000 0.000000 0.000000 0.000000 19.445203 -8.502336 1.420683 73.667251 -7.576846 -8.718731 3.852388 14.767254 0.013976 0.961011 10.240748 0.080479 0.071476 -0.043552 -0.000000 0.000000 0.000000 0.000000 0.000000 0.000000 0.000000 
-1.360510 17.086370 1.361729 -24.711791 -72.649485 25.973478 -11.573534 -2.198165 -2.995065 -6.275538 -13.600255 -4.016920 -1.167603 1.562952 23.217173 1.687574 8.783614 -12.443112 -0.836600 -0.000000 -29.339200 6.189374 7.044941 1.643673 -7.029197 -14.223339 -77.256261 1.564383 1.151726 -6.672860 -1.630345 -10.207708 17.335448 -5.372500 -0.000000 -82.016801 8.284065 -4.487060 5.280627 0.646802 -4.696909 -2.287120 -7.695460 -4.690356 -1.074798 11.096766 -8.164103 -5.121451 -4.370329 -0.349625 0.583386 0.000000 0.000000 0.000000 -3.956364 -5.024903 2.010424 -70.760289 -5.338386 18.315916 -2.729054 -27.463830 0.000112 3.512594 -4.014439 -0.127424 -0.060625 0.086398 0.000000 0.000000 0.000000 0.000000 0.000000 0.000000 0.000000 19.402907 -8.525462 1.389959 73.544339 -7.325356 -9.053044 3.829215 15.033310 0.014320 0.747107 10.445132 0.062392 0.072532 -0.046390 -0.000000 0.000000 0.000000 0.000000 0.000000 0.000000 0.000000 
-1.357880 17.077253 1.367251 -24.729492 -72.826829 25.794626 -11.552985 -2.127345 -2.894408 -6.414937 -13.516778 -4.050150 -1.176500 1.554661 23.457766 1.695281 8.812978 -12.580903 -0.865400 0.000000 -29.289500 6.283031 6.897125 1.365127 -6.039175 -13.986131 -78.293360 1.703053 0.381945 0.084793 -1.604607 -9.493710 18.634990 -5.132800 -0.000000 -82.223600 8.176584 -4.417090 5.332031 0.616198 -4.619316 -2.290438 -7.686381 -4.614486 -1.066206 11.067861 -8.187530 -5.153665 -4.352183 -0.347944 0.575417 0.000000 0.000000 0.000000 -4.135158 -4.802653 2.015978 -70.740286 -5.220642 18.790125 -2.747619 -27.334897 0.000643 3.095911 -3.836828 -0.107422 -0.059625 0.083485 0.000000 0.000000 0.000000 0.000000 0.000000 0.000000 0.000000 19.301079 -8.470510 1.368904 73.435406 -7.092603 -9.344489 3.806969 15.253737 0.014648 0.519616 10.659134 0.042204 0.073599 -0.049013 -0.000000 0.000000 0.000000 0.000000 0.000000 0.000000 0.000000 
